# xmcd CD database file
#
# Track frame offsets:
#	150
#	26695
#	53540
#	78335
#	99395
#	132715
#	149682
#	177537
#	201630
#
# Disc length: 3013 seconds
#
# Revision: 1
# Processed by: cddbd v1.4PL0 Copyright (c) Steve Scherf et al.
# Submitted via: CDex 1.51
#
DISCID=870bc309
DTITLE=Hiroshi Minami 3 - Songs
DYEAR=2001
DGENRE=Jazz
TTITLE0=Magical Mystery Tour
TTITLE1=Scarborough Fair
TTITLE2=Yellow Submarine
TTITLE3=Un Homme et Une Femme
TTITLE4=So Long
TTITLE5=Well You Need'nt
TTITLE6=Turn Around
TTITLE7=Appearance
TTITLE8=Autumn
EXTD=YEAR: 2001
EXTT0=
EXTT1=
EXTT2=
EXTT3=
EXTT4=
EXTT5=
EXTT6=
EXTT7=
EXTT8=
PLAYORDER=
